<?xml version="1.0" standalone="no"?>
<!DOCTYPE svg PUBLIC "-//W3C//DTD SVG 20010904//EN"
 "http://www.w3.org/TR/2001/REC-SVG-20010904/DTD/svg10.dtd">
<svg version="1.0" xmlns="http://www.w3.org/2000/svg"
 width="998.000000pt" height="998.000000pt" viewBox="0 0 998.000000 998.000000"
 preserveAspectRatio="xMidYMid meet">

<g transform="translate(0.000000,998.000000) scale(0.100000,-0.100000)"
fill="#000000" stroke="none">
<path d="M7545 9975 c-5 -2 -62 -18 -125 -35 -237 -65 -590 -188 -852 -296
-749 -308 -1391 -686 -1943 -1143 -170 -141 -540 -506 -664 -656 -370 -448
-625 -896 -791 -1395 l-59 -175 -53 -6 c-29 -3 -70 -14 -91 -24 -21 -10 -39
-16 -41 -14 -6 7 23 236 45 359 28 157 91 407 146 575 230 703 572 1303 1099
1923 19 23 32 42 27 42 -16 0 -249 -117 -358 -180 -693 -397 -1304 -990 -1717
-1665 -413 -676 -654 -1481 -694 -2324 -7 -143 -8 -146 -49 -235 -122 -262
-210 -585 -252 -931 -21 -171 -24 -568 -5 -730 54 -468 177 -885 384 -1299 70
-140 169 -318 174 -313 2 2 -5 48 -15 103 -37 189 -45 295 -45 539 1 199 5
260 22 357 18 100 86 338 97 338 1 0 32 -53 66 -117 241 -446 654 -939 1117
-1337 647 -554 1364 -941 2127 -1151 549 -150 1183 -209 1615 -150 223 31 810
160 793 175 -5 4 -64 12 -133 19 -127 12 -403 55 -571 90 -1015 211 -1923 634
-2524 1177 -185 166 -463 473 -450 495 4 5 22 9 42 9 19 0 90 11 157 25 588
119 1019 507 1150 1035 35 145 46 247 46 440 0 253 -33 431 -110 597 -122 261
-338 429 -615 478 -103 18 -167 19 -290 5 -200 -23 -323 -76 -431 -184 -66
-66 -152 -192 -139 -204 3 -3 15 4 28 15 80 74 283 96 393 43 111 -54 201
-251 220 -481 20 -249 -137 -448 -411 -524 -81 -22 -311 -31 -401 -16 -249 44
-465 230 -578 498 -70 167 -109 369 -109 568 0 124 3 150 26 228 110 360 410
649 772 744 85 22 121 26 240 26 128 0 151 -3 275 -36 697 -183 1172 -575
1363 -1124 41 -117 73 -261 88 -405 15 -131 6 -478 -16 -613 -53 -338 -171
-687 -280 -830 -20 -26 -35 -49 -32 -51 7 -8 168 95 239 152 101 81 219 206
294 310 85 117 195 342 234 474 59 200 73 310 74 569 l1 233 68 35 c285 143
753 222 1162 196 83 -6 152 -9 154 -7 8 7 -133 90 -244 144 -345 166 -749 260
-1122 260 l-133 0 -6 28 c-22 103 -48 190 -64 223 -11 21 -20 42 -20 47 0 17
164 229 263 340 368 413 834 700 1284 791 538 110 1104 -29 1651 -406 52 -35
96 -63 98 -60 5 5 -82 130 -164 237 -101 131 -379 403 -517 506 -612 458
-1275 590 -2003 399 -403 -106 -831 -328 -1270 -657 -79 -60 -146 -108 -149
-108 -3 0 -21 11 -39 25 -73 56 -287 184 -378 226 -52 24 -96 50 -96 57 0 24
59 249 91 344 114 344 317 749 553 1108 524 794 1261 1507 2220 2147 168 111
211 148 151 128z"/>
</g>
</svg>
